# xmcd
# 
# Track frame offsets:
#     150
#     20775
#     36118
#     48455
#     58893
#     69048
#     80053
#     95318
#     110730
#     122563
#     138240
#     154823
# 
# Disc length: 2275
# 
# Revision: 3
# Processed by: cddbd v1.5.2PL0 Copyright (c) Steve Scherf et al.
# Submitted via: fre:ac v1.0.31
# 
DISCID=a208e10c
DTITLE=T. Rex - Dandy in the Underworld
DYEAR=1994
DGENRE=Rock
TTITLE0=Dandy in the Underworld
TTITLE1=Crimson Moon
TTITLE2=Universe
TTITLE3=I'm a Fool for You Girl
TTITLE4=I Love to Boogie
TTITLE5=Visions of Domino
TTITLE6=Jason B. Sad
TTITLE7=Groove a Little
TTITLE8=The Soul of My Suit
TTITLE9=Hang-Ups
TTITLE10=Pain and love
TTITLE11=Teen Riot Structure
EXTD=YEAR: 1994
EXTT0=
EXTT1=
EXTT2=
EXTT3=
EXTT4=
EXTT5=
EXTT6=
EXTT7=
EXTT8=
EXTT9=
EXTT10=
EXTT11=
PLAYORDER=
